# xmcd CD database file
#
# Track frame offsets:
#	150
#	31012
#	57207
#	78415
#	110782
#	137052
#	153590
#	174330
#	191610
#	222382
#
# Disc length: 3318 seconds
#
# Revision: 0
# Processed by: cddbd v1.5.1PL0 Copyright (c) Steve Scherf et al.
# Submitted via: CDex 1.51
#
DISCID=860cf40a
DTITLE=Kang Qiao - Art of Living
DYEAR=2004
DGENRE=New Age
TTITLE0=Art of Living 
TTITLE1=Joyous Regime 
TTITLE2=My Cup of Tea 
TTITLE3=Summer Cicadas 
TTITLE4=Little Silk Fan 
TTITLE5=Watching the Fish 
TTITLE6=The Moon Had Watched Us 
TTITLE7=Fresh Moments of Childhood 
TTITLE8=A Thin Boat that Sails Like a Leave 
TTITLE9=Wondering in Mountains and Waters 
EXTD=YEAR: 2004
EXTT0=
EXTT1=
EXTT2=
EXTT3=
EXTT4=
EXTT5=
EXTT6=
EXTT7=
EXTT8=
EXTT9=
PLAYORDER=
